<?xml version="1.0" encoding="UTF-8"?>
<svg xmlns="http://www.w3.org/2000/svg" width="800" height="120" viewBox="0 0 800 120">
    <defs>
        <!-- Brand Red Gradient -->
        <linearGradient id="brand-red-gradient" x1="0%" y1="0%" x2="100%" y2="100%">
            <stop offset="0%" stop-color="#D42027"/>
            <stop offset="100%" stop-color="#8A0F13"/>
        </linearGradient>
    </defs>

    <!-- White Icon Frame -->
    <rect x="0" y="10" width="100" height="100" rx="24" fill="#FFFFFF"/>

    <!-- Chef's Hat Icon -->
    <g transform="translate(50, 60) scale(0.22) translate(-509, -606)">
        <path fill="url(#brand-red-gradient)"
              d="M 365.335938 580.691406 C 358.996094 588.121094 352.941406 595.570312 347.152344 603.03125 C 351.65625 611.050781 358.941406 617.730469 368.914062 621.800781 C 386.671875 629.058594 390.867188 639.25 388.539062 655.730469 C 388.238281 657.859375 388.773438 660.101562 388.457031 662.21875 C 387.046875 671.710938 391.929688 673.070312 399.867188 671.898438 C 415.371094 669.609375 430.910156 667.5 446.488281 665.851562 C 462.78125 664.121094 477.871094 661.609375 509.242188 662.5 C 551.550781 663.699219 588.523438 674.140625 588.148438 676.851562 C 587.835938 679.128906 561.09375 674.890625 514.570312 675.050781 C 422.476562 675.359375 390.765625 692.410156 388.835938 702.371094 C 388.550781 703.839844 389.511719 708.761719 389.054688 718.378906 C 425.675781 710.929688 466.367188 706.769531 509.242188 706.769531 C 552.605469 706.769531 593.746094 711.019531 630.691406 718.640625 C 633.050781 709.039062 630.492188 696.101562 629.875 687.019531 C 629.175781 676.671875 629.296875 666.28125 629.421875 655.910156 C 629.625 638.859375 632.949219 628.589844 649.5625 621.800781 C 675.085938 611.371094 683.089844 583.941406 671.589844 560.601562 C 660.988281 539.078125 628.601562 534.71875 607.785156 540.179688 C 590.15625 544.808594 578.785156 557.28125 572.445312 552.390625 C 570.410156 550.820312 570.914062 548.929688 568.546875 540.210938 C 567.484375 536.300781 564.785156 526.371094 560.808594 519.449219 C 554.578125 508.609375 544.296875 503.589844 539.34375 501.140625 C 530.21875 496.628906 520.109375 494.828125 509.242188 495.261719 C 498.371094 494.828125 488.261719 496.628906 479.136719 501.140625 C 467.59375 506.851562 460.75 515.140625 457.671875 519.449219 C 444.832031 537.421875 446.207031 557.550781 446.808594 564.839844 C 448.597656 586.480469 458.824219 599.359375 456.289062 600.988281 C 453.792969 602.589844 441.128906 589.789062 430.808594 574.320312 C 416.867188 553.421875 419.507812 546.078125 410.695312 540.179688 C 391.195312 527.328125 358.972656 537.371094 346.890625 560.601562 C 335.386719 582.789062 341.914062 611.191406 365.335938 621.800781 C 381.945312 628.589844 385.269531 638.859375 385.476562 655.910156 C 385.597656 666.28125 385.71875 676.671875 385.019531 687.019531 C 384.402344 696.101562 381.839844 709.039062 384.199219 718.640625 C 421.148438 711.019531 462.289062 706.769531 505.652344 706.769531 C 548.527344 706.769531 589.21875 710.929688 625.839844 718.378906 C 625.382812 708.761719 626.34375 703.839844 626.058594 702.371094 C 624.128906 692.410156 592.417969 675.359375 500.324219 675.050781 C 453.800781 674.890625 427.058594 679.128906 426.746094 676.851562 C 426.371094 674.140625 463.34375 663.699219 505.652344 662.5 C 537.023438 661.609375 552.113281 664.121094 568.40625 665.851562 C 583.984375 667.5 599.523438 669.609375 615.027344 671.898438 C 622.964844 673.070312 627.847656 671.710938 626.4375 662.21875 C 626.121094 660.101562 626.65625 657.859375 626.355469 655.730469 C 624.027344 639.25 628.222656 629.058594 645.980469 621.800781 C 655.953125 617.730469 663.238281 611.050781 667.742188 603.03125 C 661.953125 595.570312 655.898438 588.121094 649.558594 580.691406 C 629.257812 556.769531 604.160156 537.601562 575.703125 524.109375 C 551.253906 512.511719 524.421875 505.359375 496.058594 503.589844 C 504.113281 498.890625 509.242188 490.238281 509.242188 480.390625 C 509.242188 465.121094 496.832031 452.710938 481.5625 452.710938 C 466.292969 452.710938 453.882812 465.121094 453.882812 480.390625 C 453.882812 490.238281 459.007812 498.890625 467.066406 503.589844 C 438.699219 505.359375 411.867188 512.511719 387.417969 524.109375 C 358.960938 537.601562 333.863281 556.769531 313.5625 580.691406 C 307.222656 588.121094 301.167969 595.570312 295.378906 603.03125 C 299.882812 611.050781 307.167969 617.730469 317.140625 621.800781 C 334.898438 629.058594 339.09375 639.25 336.765625 655.730469 C 336.464844 657.859375 337 660.101562 336.683594 662.21875 C 335.273438 671.710938 340.15625 673.070312 348.09375 671.898438 C 363.597656 669.609375 379.136719 667.5 394.714844 665.851562 C 410.894531 664.132812 425.878906 661.640625 456.761719 662.5 L 456.761719 662.5 Z"/>
    </g>

    <!-- White Text with Red Accent -->
    <text x="120" y="85" font-family="system-ui, -apple-system, BlinkMacSystemFont, 'Segoe UI', Roboto, sans-serif"
          font-weight="800" font-size="72" fill="#FFFFFF" letter-spacing="-2">
        Menuvo
        <tspan fill="#D42027">.app</tspan>
    </text>
</svg>
