<?xml version="1.0" encoding="UTF-8"?>
<svg xmlns="http://www.w3.org/2000/svg" width="800" height="200" viewBox="0 0 1150 250">
    <defs>
        <!-- Brand Red Gradient -->
        <linearGradient id="brand-red-gradient" x1="0%" y1="0%" x2="100%" y2="100%">
            <stop offset="0%" stop-color="#D42027"/>
            <stop offset="100%" stop-color="#8A0F13"/>
        </linearGradient>

        <!-- More pronounced shadow for the icon frame -->
        <filter id="icon-frame-shadow" x="-50%" y="-50%" width="200%" height="200%">
            <feGaussianBlur in="SourceAlpha" stdDeviation="12"/>
            <feOffset dx="0" dy="6" result="offsetblur"/>
            <feComponentTransfer>
                <feFuncA type="linear" slope="0.2"/>
            </feComponentTransfer>
            <feMerge>
                <feMergeNode/>
                <feMergeNode in="SourceGraphic"/>
            </feMerge>
        </filter>
    </defs>

    <!-- White Icon Frame with Shadow and subtle border for separation -->
    <rect x="50" y="50" width="150" height="150" rx="40" fill="#FFFFFF" filter="url(#icon-frame-shadow)"
          stroke="#E5E7EB" stroke-width="1"/>

    <!-- CLEAN Chef's Hat Icon -->
    <g transform="translate(125, 125) scale(0.35) translate(-509, -606)">
        <path fill="url(#brand-red-gradient)"
              d="M 365.335938 580.691406 C 358.996094 588.121094 352.941406 595.570312 347.152344 603.03125 C 351.65625 611.050781 358.941406 617.730469 368.914062 621.800781 C 386.671875 629.058594 390.867188 639.25 388.539062 655.730469 C 388.238281 657.859375 388.773438 660.101562 388.457031 662.21875 C 387.046875 671.710938 391.929688 673.070312 399.867188 671.898438 C 415.371094 669.609375 430.910156 667.5 446.488281 665.851562 C 462.78125 664.121094 477.871094 661.609375 509.242188 662.5 C 551.550781 663.699219 588.523438 674.140625 588.148438 676.851562 C 587.835938 679.128906 561.09375 674.890625 514.570312 675.050781 C 422.476562 675.359375 390.765625 692.410156 388.835938 702.371094 C 388.550781 703.839844 389.511719 708.761719 389.054688 718.378906 C 425.675781 710.929688 466.367188 706.769531 509.242188 706.769531 C 552.605469 706.769531 593.746094 711.019531 630.691406 718.640625 C 633.050781 709.039062 630.492188 696.101562 629.875 687.019531 C 629.175781 676.671875 629.296875 666.28125 629.421875 655.910156 C 629.625 638.859375 632.949219 628.589844 649.5625 621.800781 C 675.085938 611.371094 683.089844 583.941406 671.589844 560.601562 C 660.988281 539.078125 628.601562 534.71875 607.785156 540.179688 C 590.15625 544.808594 578.785156 557.28125 572.445312 552.390625 C 570.410156 550.820312 570.914062 548.929688 568.546875 540.210938 C 567.484375 536.300781 564.785156 526.371094 560.808594 519.449219 C 554.578125 508.609375 544.296875 503.589844 539.34375 501.140625 C 530.21875 496.628906 520.109375 494.828125 509.242188 495.261719 C 498.371094 494.828125 488.261719 496.628906 479.136719 501.140625 C 467.59375 506.851562 460.75 515.140625 457.671875 519.449219 C 444.832031 537.421875 446.207031 557.550781 446.808594 564.839844 C 448.597656 586.480469 458.824219 599.359375 456.289062 600.988281 C 453.792969 602.589844 441.128906 589.789062 430.808594 574.320312 C 416.867188 553.421875 419.507812 546.078125 410.695312 540.179688 C 409.199219 539.179688 407.53125 538.328125 405.730469 537.628906 C 391.921875 551.019531 378.414062 565.351562 365.335938 580.691406 Z"/>
    </g>

    <!-- Text with spacing and offset to prevent clipping -->
    <text x="240" y="165"
          font-family="-apple-system, BlinkMacSystemFont, 'Segoe UI', Roboto, Helvetica, Arial, sans-serif"
          font-weight="900" font-size="140" fill="#2D2D2D" letter-spacing="-4">
        Menuvo
        <tspan fill="#D42027">.app</tspan>
    </text>
</svg>
